<svg xmlns="http://www.w3.org/2000/svg" viewBox="0 0 72 72"><path fill="rgb(0,0,0)" fill-rule="evenodd" d="M29 1.5L29 1L36 1L43 1L43 1.5L43 2L45 2L47 2L47 2.5L47 3L48.5 3L50 3L50 3.5L50 4L50.5 4L51 4L51 4.5L51 5L49 5L47 5L47 5.5L47 6L45 6.5L43 7L43 7.5L43 8L41.5 8.5L40 9L40 9.5L40 10L36 10L32 10L32 10.5L32 11L30 11L28 11L28 11.5L28 12L25.5 12.5Q23 13 22.5 14L22 15L21 15L20 15L20 15.5Q20 16 17.5 18Q15 20 15 21L15 22L14 22.5Q13 23 12.5 25.5L12 28L11.5 28L11 28L11 30L11 32L10.5 32L10 32L10 36L10 40L10.5 40L11 40L11 42L11 44L11.5 44L12 44L12.5 46.5Q13 49 14 49.5L15 50L15 51L15 52L15.5 52Q16 52 18 54.5Q20 57 21 57L22 57L22 57.5L22 58L23.5 58.5L25 59L25 59.5L25 60L26 60L27 60L27.5 61.5L28 63L28.5 63L29 63L30 64.5L31 66L32 66L33 66L33 66.5L33 67L36.5 67L40 67L40 66.5L40 66L41 66L42 66L42 65.5L42 65L43 64.5L44 64L44 63L44 62L44.5 62L45 62L45 61L45 60L47 59.5Q49 59 49.5 58L50 57L51 57L52 57L52 56.5Q52 56 54.5 54Q57 52 57 51L57 50L58 49.5Q59 49 59.5 46.5L60 44L60.5 44L61 44L61 42L61 40L61.5 40L62 40L62 36L62 32L61.5 32L61 32L61 30L61 28L60.5 28L60 28L59.5 25.5Q59 23 58 22.5L57 22L57.5 20.5Q58 19 59 18.5L60 18L60 14.5L60 11L60.5 11L61 11L61 11.5L61 12L63 13.5L65 15L65 16L65 17L66 17.5L67 18L67 19L67 20L67.5 20L68 20L68 21L68 22L68.5 22L69 22L69 23.5L69 25L69.5 25L70 25L70 27L70 29L70.5 29L71 29L71 36L71 43L70.5 43L70 43L69.5 46.5L69 50L68.5 50L68 50L67.5 52Q67 54 66 54.5L65 55L65 56L65 57L64.5 57L64 57L64 57.5L64 58L63.5 58L63 58L63 58.5L63 59L62.5 59Q62 59 59.5 62Q57 65 56 65L55 65L54.5 66L54 67L53 67L52 67L52 67.5L52 68L51 68L50 68L50 68.5L50 69L48.5 69L47 69L47 69.5L47 70L45 70L43 70L43 70.5L43 71L36 71L29 71L29 70.5L29 70L25.5 69.5L22 69L22 68.5L22 68L20 67.5Q18 67 17.5 66L17 65L16 65L15 65L15 64.5L15 64L14.5 64L14 64L14 63.5L14 63L13.5 63L13 63L13 62.5Q13 62 10 59.5Q7 57 7 56L7 55L6 54.5L5 54L5 53L5 52L4.5 52L4 52L4 51L4 50L3.5 50L3 50L3 48.5L3 47L2.5 47L2 47L2 45L2 43L1.5 43L1 43L1 36L1 29L1.5 29L2 29L2.5 25.5L3 22L3.5 22L4 22L4.5 20Q5 18 6 17.5L7 17L7 16L7 15L7.5 15L8 15L8 14.5L8 14L8.5 14L9 14L9 13.5L9 13L9.5 13Q10 13 12.5 10Q15 7 16 7L17 7L17.5 6L18 5L19 5L20 5L20 4.5L20 4L21 4L22 4L22 3.5L22 3L23.5 3L25 3L25 2.5L25 2L27 2L29 2L29 1.5ZM48 8.5L48 8L51 8L54 8L54 8.5L54 9L55 9.5L56 10L56 11L56 12L56.5 12L57 12L57 14L57 16L56.5 16L56 16L56 17L56 18L55.5 18L55 18L54.5 19Q54 20 52 20.5Q50 21 49.5 22Q49 23 46 24Q43 25 42.5 26Q42 27 40 27.5Q38 28 37.5 29Q37 30 34 31Q31 32 30.5 33L30 34L29 34L28 34L28 34.5L28 35L26 35.5L24 36L24 36.5L24 37L21 37L18 37L18 36.5L18 36L17 36L16 36L16 35L16 34L15.5 34L15 34L15 31L15 28L15.5 28L16 28L16.5 27L17 26L18 26L19 26L19.5 25Q20 24 23 23Q26 22 26.5 21Q27 20 30 19Q33 18 33.5 17Q34 16 36 15.5Q38 15 38.5 14Q39 13 42 12L45 11L45 10.5L45 10L46.5 9.5L48 9L48 8.5ZM41 30.5L41 30L43.5 30L46 30L46 30.5L46 31L47.5 31.5L49 32L49 33L49 34L49.5 34L50 34L50 36L50 38L49.5 38L49 38L49 39L49 40L47.5 40.5Q46 41 45.5 42Q45 43 43 43.5Q41 44 40.5 45Q40 46 37 47Q34 48 33.5 49L33 50L31.5 50L30 50L30 50.5L30 51L27.5 50.5L25 50L25 49.5L25 49L24 48.5L23 48L23 46.5L23 45L22.5 45L22 45L22 44.5L22 44L22.5 44L23 44L23 42.5L23 41L23.5 41L24 41L24.5 40L25 39L26 39L27 39L27.5 38Q28 37 31 36Q34 35 34.5 34Q35 33 38 32L41 31L41 30.5ZM32.5 53L33 52L36 52L39 52L39 52.5L39 53L40 53L41 53L41 54L41 55L41.5 55L42 55L42 58L42 61L41.5 61L41 61L40 62.5L39 64L36.5 64L34 64L34 63.5L34 63L32.5 62.5L31 62L31 61L31 60L30.5 60L30 60L30 58L30 56L30.5 56L31 56L31 55L31 54L31.5 54L32 54L32.5 53Z"/><path fill="rgb(17,17,17)" fill-rule="evenodd" d="M29 1.5L29 1L36 1L43 1L43 1.5L43 2L45 2L47 2L47 2.5L47 3L48.5 3L50 3L50 3.5L50 4L50.5 4L51 4L51 4.5L51 5L49 5L47 5L47 5.5L47 6L45 6.5L43 7L43 7.5L43 8L41.5 8.5L40 9L40 9.5L40 10L36 10L32 10L32 10.5L32 11L30 11L28 11L28 11.5L28 12L25.5 12.5Q23 13 22.5 14L22 15L21 15L20 15L20 15.5Q20 16 17.5 18Q15 20 15 21L15 22L14 22.5Q13 23 12.5 25.5L12 28L11.5 28L11 28L11 30L11 32L10.5 32L10 32L10 36L10 40L10.5 40L11 40L11 42L11 44L11.5 44L12 44L12.5 46.5Q13 49 14 49.5L15 50L15 51L15 52L15.5 52Q16 52 18 54.5Q20 57 21 57L22 57L22 57.5L22 58L23.5 58.5L25 59L25 59.5L25 60L26 60L27 60L27.5 61.5L28 63L28.5 63L29 63L30 64.5L31 66L32 66L33 66L33 66.5L33 67L36.5 67L40 67L40 66.5L40 66L41 66L42 66L42 65.5L42 65L43 64.5L44 64L44 63L44 62L44.5 62L45 62L45 61L45 60L47 59.5Q49 59 49.5 58L50 57L51 57L52 57L52 56.5Q52 56 54.5 54Q57 52 57 51L57 50L58 49.5Q59 49 59.5 46.5L60 44L60.5 44L61 44L61 42L61 40L61.5 40L62 40L62 36L62 32L61.5 32L61 32L61 30L61 28L60.5 28L60 28L59.5 25.5Q59 23 58 22.5L57 22L57.5 20.5Q58 19 59 18.5L60 18L60 14.5L60 11L60.5 11L61 11L61 11.5L61 12L63 13.5L65 15L65 16L65 17L66 17.5L67 18L67 19L67 20L67.5 20L68 20L68 21L68 22L68.5 22L69 22L69 23.5L69 25L69.5 25L70 25L70 27L70 29L70.5 29L71 29L71 36L71 43L70.5 43L70 43L69.5 46.5L69 50L68.5 50L68 50L67.5 52Q67 54 66 54.5L65 55L65 56L65 57L64.5 57L64 57L64 57.5L64 58L63.5 58L63 58L63 58.5L63 59L62.5 59Q62 59 59.5 62Q57 65 56 65L55 65L54.5 66L54 67L53 67L52 67L52 67.5L52 68L51 68L50 68L50 68.5L50 69L48.5 69L47 69L47 69.5L47 70L45 70L43 70L43 70.5L43 71L36 71L29 71L29 70.5L29 70L25.5 69.5L22 69L22 68.5L22 68L20 67.5Q18 67 17.5 66L17 65L16 65L15 65L15 64.5L15 64L14.5 64L14 64L14 63.5L14 63L13.5 63L13 63L13 62.5Q13 62 10 59.5Q7 57 7 56L7 55L6 54.5L5 54L5 53L5 52L4.5 52L4 52L4 51L4 50L3.5 50L3 50L3 48.5L3 47L2.5 47L2 47L2 45L2 43L1.5 43L1 43L1 36L1 29L1.5 29L2 29L2.5 25.5L3 22L3.5 22L4 22L4.5 20Q5 18 6 17.5L7 17L7 16L7 15L7.5 15L8 15L8 14.5L8 14L8.5 14L9 14L9 13.5L9 13L9.5 13Q10 13 12.5 10Q15 7 16 7L17 7L17.5 6L18 5L19 5L20 5L20 4.5L20 4L21 4L22 4L22 3.5L22 3L23.5 3L25 3L25 2.5L25 2L27 2L29 2L29 1.5ZM48 8.5L48 8L51 8L54 8L54 8.5L54 9L55 9.5L56 10L56 11L56 12L56.5 12L57 12L57 14L57 16L56.5 16L56 16L56 17L56 18L55.5 18L55 18L54.5 19Q54 20 52 20.5Q50 21 49.5 22Q49 23 46 24Q43 25 42.5 26Q42 27 40 27.5Q38 28 37.5 29Q37 30 34 31Q31 32 30.5 33L30 34L29 34L28 34L28 34.5L28 35L26 35.5L24 36L24 36.5L24 37L21 37L18 37L18 36.5L18 36L17 36L16 36L16 35L16 34L15.5 34L15 34L15 31L15 28L15.5 28L16 28L16.5 27L17 26L18 26L19 26L19.5 25Q20 24 23 23Q26 22 26.5 21Q27 20 30 19Q33 18 33.5 17Q34 16 36 15.5Q38 15 38.5 14Q39 13 42 12L45 11L45 10.5L45 10L46.5 9.5L48 9L48 8.5ZM41 30.5L41 30L43.5 30L46 30L46 30.5L46 31L47.5 31.5L49 32L49 33L49 34L49.5 34L50 34L50 36L50 38L49.5 38L49 38L49 39L49 40L47.5 40.5Q46 41 45.5 42Q45 43 43 43.5Q41 44 40.5 45Q40 46 37 47Q34 48 33.5 49L33 50L31.5 50L30 50L30 50.5L30 51L27.5 50.5L25 50L25 49.5L25 49L24 48.5L23 48L23 46.5L23 45L22.5 45L22 45L22 44.5L22 44L22.5 44L23 44L23 42.5L23 41L23.5 41L24 41L24.5 40L25 39L26 39L27 39L27.5 38Q28 37 31 36Q34 35 34.5 34Q35 33 38 32L41 31L41 30.5ZM32.5 53L33 52L36 52L39 52L39 52.5L39 53L40 53L41 53L41 54L41 55L41.5 55L42 55L42 58L42 61L41.5 61L41 61L40 62.5L39 64L36.5 64L34 64L34 63.5L34 63L32.5 62.5L31 62L31 61L31 60L30.5 60L30 60L30 58L30 56L30.5 56L31 56L31 55L31 54L31.5 54L32 54L32.5 53Z"/><path fill="rgb(34,34,34)" fill-rule="evenodd" d="M29 1.5L29 1L36 1L43 1L43 1.5L43 2L45 2L47 2L47 2.5L47 3L48.5 3L50 3L50 3.5L50 4L50.5 4L51 4L51 4.5L51 5L49 5L47 5L47 5.5L47 6L45 6.5L43 7L43 7.5L43 8L41.5 8.5L40 9L40 9.5L40 10L36 10L32 10L32 10.5L32 11L30 11L28 11L28 11.5L28 12L25.5 12.5Q23 13 22.5 14L22 15L21 15L20 15L20 15.5Q20 16 17.5 18Q15 20 15 21L15 22L14 22.5Q13 23 12.5 25.5L12 28L11.5 28L11 28L11 30L11 32L10.5 32L10 32L10 36L10 40L10.5 40L11 40L11 42L11 44L11.5 44L12 44L12.5 46.5Q13 49 14 49.5L15 50L15 51L15 52L15.5 52Q16 52 18 54.5Q20 57 21 57L22 57L22 57.5L22 58L23.5 58.5L25 59L25 59.5L25 60L26 60L27 60L27.5 61.5L28 63L28.5 63L29 63L30 64.5L31 66L32 66L33 66L33 66.5L33 67L36.5 67L40 67L40 66.5L40 66L41 66L42 66L42 65.5L42 65L43 64.5L44 64L44 63L44 62L44.5 62L45 62L45 61L45 60L47 59.5Q49 59 49.5 58L50 57L51 57L52 57L52 56.5Q52 56 54.5 54Q57 52 57 51L57 50L58 49.5Q59 49 59.5 46.5L60 44L60.5 44L61 44L61 42L61 40L61.5 40L62 40L62 36L62 32L61.5 32L61 32L61 30L61 28L60.5 28L60 28L59.5 25.5Q59 23 58 22.5L57 22L57.5 20.5Q58 19 59 18.5L60 18L60 14.5L60 11L60.5 11L61 11L61 11.5L61 12L63 13.5L65 15L65 16L65 17L66 17.5L67 18L67 19L67 20L67.5 20L68 20L68 21L68 22L68.5 22L69 22L69 23.5L69 25L69.5 25L70 25L70 27L70 29L70.5 29L71 29L71 36L71 43L70.5 43L70 43L69.5 46.5L69 50L68.5 50L68 50L67.5 52Q67 54 66 54.5L65 55L65 56L65 57L64.5 57L64 57L64 57.5L64 58L63.5 58L63 58L63 58.5L63 59L62.5 59Q62 59 59.5 62Q57 65 56 65L55 65L54.5 66L54 67L53 67L52 67L52 67.5L52 68L51 68L50 68L50 68.5L50 69L48.5 69L47 69L47 69.5L47 70L45 70L43 70L43 70.5L43 71L36 71L29 71L29 70.5L29 70L25.5 69.5L22 69L22 68.5L22 68L20 67.5Q18 67 17.5 66L17 65L16 65L15 65L15 64.5L15 64L14.5 64L14 64L14 63.5L14 63L13.5 63L13 63L13 62.5Q13 62 10 59.5Q7 57 7 56L7 55L6 54.5L5 54L5 53L5 52L4.5 52L4 52L4 51L4 50L3.5 50L3 50L3 48.5L3 47L2.5 47L2 47L2 45L2 43L1.5 43L1 43L1 36L1 29L1.5 29L2 29L2.5 25.5L3 22L3.5 22L4 22L4.5 20Q5 18 6 17.5L7 17L7 16L7 15L7.5 15L8 15L8 14.5L8 14L8.5 14L9 14L9 13.5L9 13L9.5 13Q10 13 12.5 10Q15 7 16 7L17 7L17.5 6L18 5L19 5L20 5L20 4.5L20 4L21 4L22 4L22 3.5L22 3L23.5 3L25 3L25 2.5L25 2L27 2L29 2L29 1.5ZM48 8.5L48 8L51 8L54 8L54 8.5L54 9L55 9.5L56 10L56 11L56 12L56.5 12L57 12L57 14L57 16L56.5 16L56 16L56 17L56 18L55.5 18L55 18L54.5 19Q54 20 52 20.5Q50 21 49.5 22Q49 23 46 24Q43 25 42.5 26Q42 27 40 27.5Q38 28 37.5 29Q37 30 34 31Q31 32 30.5 33L30 34L29 34L28 34L28 34.5L28 35L26 35.5L24 36L24 36.5L24 37L21 37L18 37L18 36.5L18 36L17 36L16 36L16 35L16 34L15.5 34L15 34L15 31L15 28L15.5 28L16 28L16.5 27L17 26L18 26L19 26L19.5 25Q20 24 23 23Q26 22 26.5 21Q27 20 30 19Q33 18 33.5 17Q34 16 36 15.5Q38 15 38.5 14Q39 13 42 12L45 11L45 10.5L45 10L46.5 9.5L48 9L48 8.5ZM41 30.5L41 30L43.5 30L46 30L46 30.5L46 31L47.5 31.5L49 32L49 33L49 34L49.5 34L50 34L50 36L50 38L49.5 38L49 38L49 39L49 40L47.5 40.5Q46 41 45.5 42Q45 43 43 43.5Q41 44 40.5 45Q40 46 37 47Q34 48 33.5 49L33 50L31.5 50L30 50L30 50.5L30 51L27.5 50.5L25 50L25 49.5L25 49L24 48.5L23 48L23 46.5L23 45L22.5 45L22 45L22 44.5L22 44L22.5 44L23 44L23 42.5L23 41L23.5 41L24 41L24.5 40L25 39L26 39L27 39L27.5 38Q28 37 31 36Q34 35 34.5 34Q35 33 38 32L41 31L41 30.5ZM32.5 53L33 52L36 52L39 52L39 52.5L39 53L40 53L41 53L41 54L41 55L41.5 55L42 55L42 58L42 61L41.5 61L41 61L40 62.5L39 64L36.5 64L34 64L34 63.5L34 63L32.5 62.5L31 62L31 61L31 60L30.5 60L30 60L30 58L30 56L30.5 56L31 56L31 55L31 54L31.5 54L32 54L32.5 53Z"/><path fill="rgb(51,51,51)" fill-rule="evenodd" d="M29 1.5L29 1L36 1L43 1L43 1.5L43 2L45 2L47 2L47 2.5L47 3L48.5 3L50 3L50 3.5L50 4L50.5 4L51 4L51 4.5L51 5L49 5L47 5L47 5.5L47 6L45 6.5L43 7L43 7.5L43 8L41.5 8.5L40 9L40 9.5L40 10L36 10L32 10L32 10.5L32 11L30 11L28 11L28 11.5L28 12L25.5 12.5Q23 13 22.5 14L22 15L21 15L20 15L20 15.5Q20 16 17.5 18Q15 20 15 21L15 22L14 22.5Q13 23 12.5 25.5L12 28L11.5 28L11 28L11 30L11 32L10.5 32L10 32L10 36L10 40L10.5 40L11 40L11 42L11 44L11.5 44L12 44L12.5 46.5Q13 49 14 49.5L15 50L15 51L15 52L15.5 52Q16 52 18 54.5Q20 57 21 57L22 57L22 57.5L22 58L23.5 58.5L25 59L25 59.5L25 60L26 60L27 60L27.5 61.5L28 63L28.5 63L29 63L30 64.5L31 66L32 66L33 66L33 66.5L33 67L36.5 67L40 67L40 66.5L40 66L41 66L42 66L42 65.5L42 65L43 64.5L44 64L44 63L44 62L44.5 62L45 62L45 61L45 60L47 59.5Q49 59 49.5 58L50 57L51 57L52 57L52 56.5Q52 56 54.5 54Q57 52 57 51L57 50L58 49.5Q59 49 59.5 46.5L60 44L60.5 44L61 44L61 42L61 40L61.5 40L62 40L62 36L62 32L61.5 32L61 32L61 30L61 28L60.5 28L60 28L59.5 25.5Q59 23 58 22.5L57 22L57.5 20.5Q58 19 59 18.5L60 18L60 14.5L60 11L60.5 11L61 11L61 11.5L61 12L63 13.5L65 15L65 16L65 17L66 17.5L67 18L67 19L67 20L67.5 20L68 20L68 21L68 22L68.5 22L69 22L69 23.5L69 25L69.5 25L70 25L70 27L70 29L70.5 29L71 29L71 36L71 43L70.5 43L70 43L69.5 46.5L69 50L68.5 50L68 50L67.5 52Q67 54 66 54.5L65 55L65 56L65 57L64.5 57L64 57L64 57.5L64 58L63.5 58L63 58L63 58.5L63 59L62.5 59Q62 59 59.5 62Q57 65 56 65L55 65L54.5 66L54 67L53 67L52 67L52 67.5L52 68L51 68L50 68L50 68.5L50 69L48.5 69L47 69L47 69.5L47 70L45 70L43 70L43 70.5L43 71L36 71L29 71L29 70.5L29 70L25.5 69.5L22 69L22 68.5L22 68L20 67.5Q18 67 17.5 66L17 65L16 65L15 65L15 64.5L15 64L14.5 64L14 64L14 63.5L14 63L13.5 63L13 63L13 62.5Q13 62 10 59.5Q7 57 7 56L7 55L6 54.5L5 54L5 53L5 52L4.5 52L4 52L4 51L4 50L3.5 50L3 50L3 48.5L3 47L2.5 47L2 47L2 45L2 43L1.5 43L1 43L1 36L1 29L1.5 29L2 29L2.5 25.5L3 22L3.5 22L4 22L4.5 20Q5 18 6 17.5L7 17L7 16L7 15L7.5 15L8 15L8 14.5L8 14L8.5 14L9 14L9 13.5L9 13L9.5 13Q10 13 12.5 10Q15 7 16 7L17 7L17.5 6L18 5L19 5L20 5L20 4.5L20 4L21 4L22 4L22 3.5L22 3L23.5 3L25 3L25 2.5L25 2L27 2L29 2L29 1.5ZM48 8.5L48 8L51 8L54 8L54 8.5L54 9L55 9.5L56 10L56 11L56 12L56.5 12L57 12L57 14L57 16L56.5 16L56 16L56 17L56 18L55.5 18L55 18L54.5 19Q54 20 52 20.5Q50 21 49.5 22Q49 23 46 24Q43 25 42.5 26Q42 27 40 27.5Q38 28 37.5 29Q37 30 34 31Q31 32 30.5 33L30 34L29 34L28 34L28 34.5L28 35L26 35.5L24 36L24 36.5L24 37L21 37L18 37L18 36.5L18 36L17 36L16 36L16 35L16 34L15.5 34L15 34L15 31L15 28L15.5 28L16 28L16.5 27L17 26L18 26L19 26L19.5 25Q20 24 23 23Q26 22 26.5 21Q27 20 30 19Q33 18 33.5 17Q34 16 36 15.5Q38 15 38.5 14Q39 13 42 12L45 11L45 10.5L45 10L46.5 9.5L48 9L48 8.5ZM41 30.5L41 30L43.5 30L46 30L46 30.5L46 31L47.5 31.5L49 32L49 33L49 34L49.5 34L50 34L50 36L50 38L49.5 38L49 38L49 39L49 40L47.5 40.5Q46 41 45.5 42Q45 43 43 43.5Q41 44 40.5 45Q40 46 37 47Q34 48 33.5 49L33 50L31.5 50L30 50L30 50.5L30 51L27.5 50.5L25 50L25 49.5L25 49L24 48.5L23 48L23 46.5L23 45L22.5 45L22 45L22 44.5L22 44L22.5 44L23 44L23 42.5L23 41L23.5 41L24 41L24.5 40L25 39L26 39L27 39L27.5 38Q28 37 31 36Q34 35 34.5 34Q35 33 38 32L41 31L41 30.5ZM32.5 53L33 52L36 52L39 52L39 52.5L39 53L40 53L41 53L41 54L41 55L41.5 55L42 55L42 58L42 61L41.5 61L41 61L40 62.5L39 64L36.5 64L34 64L34 63.5L34 63L32.5 62.5L31 62L31 61L31 60L30.5 60L30 60L30 58L30 56L30.5 56L31 56L31 55L31 54L31.5 54L32 54L32.5 53Z"/><path fill="rgb(68,68,68)" fill-rule="evenodd" d="M29 1.5L29 1L36 1L43 1L43 1.5L43 2L45 2L47 2L47 2.5L47 3L48.5 3L50 3L50 3.5L50 4L50.5 4L51 4L51 4.5L51 5L49 5L47 5L47 5.5L47 6L45 6.5L43 7L43 7.5L43 8L41.5 8.5L40 9L40 9.5L40 10L36 10L32 10L32 10.5L32 11L30 11L28 11L28 11.5L28 12L25.5 12.5Q23 13 22.5 14L22 15L21 15L20 15L20 15.5Q20 16 17.5 18Q15 20 15 21L15 22L14 22.5Q13 23 12.5 25.5L12 28L11.5 28L11 28L11 30L11 32L10.5 32L10 32L10 36L10 40L10.5 40L11 40L11 42L11 44L11.5 44L12 44L12.5 46.5Q13 49 14 49.5L15 50L15 51L15 52L15.5 52Q16 52 18 54.5Q20 57 21 57L22 57L22 57.5L22 58L23.5 58.5L25 59L25 59.5L25 60L26 60L27 60L27.5 61.5L28 63L28.5 63L29 63L30 64.5L31 66L32 66L33 66L33 66.5L33 67L36.5 67L40 67L40 66.5L40 66L41 66L42 66L42 65.5L42 65L43 64.5L44 64L44 63L44 62L44.5 62L45 62L45 61L45 60L47 59.5Q49 59 49.5 58L50 57L51 57L52 57L52 56.5Q52 56 54.5 54Q57 52 57 51L57 50L58 49.5Q59 49 59.5 46.5L60 44L60.5 44L61 44L61 42L61 40L61.5 40L62 40L62 36L62 32L61.5 32L61 32L61 30L61 28L60.5 28L60 28L59.5 25.5Q59 23 58 22.5L57 22L57.5 20.5Q58 19 59 18.5L60 18L60 14.5L60 11L60.5 11L61 11L61 11.5L61 12L63 13.5L65 15L65 16L65 17L66 17.5L67 18L67 19L67 20L67.5 20L68 20L68 21L68 22L68.5 22L69 22L69 23.5L69 25L69.5 25L70 25L70 27L70 29L70.5 29L71 29L71 36L71 43L70.5 43L70 43L69.5 46.5L69 50L68.5 50L68 50L67.5 52Q67 54 66 54.5L65 55L65 56L65 57L64.5 57L64 57L64 57.5L64 58L63.5 58L63 58L63 58.5L63 59L62.5 59Q62 59 59.5 62Q57 65 56 65L55 65L54.5 66L54 67L53 67L52 67L52 67.5L52 68L51 68L50 68L50 68.5L50 69L48.5 69L47 69L47 69.5L47 70L45 70L43 70L43 70.5L43 71L36 71L29 71L29 70.5L29 70L25.5 69.5L22 69L22 68.5L22 68L20 67.5Q18 67 17.5 66L17 65L16 65L15 65L15 64.5L15 64L14.5 64L14 64L14 63.5L14 63L13.5 63L13 63L13 62.5Q13 62 10 59.5Q7 57 7 56L7 55L6 54.5L5 54L5 53L5 52L4.5 52L4 52L4 51L4 50L3.5 50L3 50L3 48.5L3 47L2.5 47L2 47L2 45L2 43L1.5 43L1 43L1 36L1 29L1.5 29L2 29L2.5 25.5L3 22L3.5 22L4 22L4.5 20Q5 18 6 17.5L7 17L7 16L7 15L7.5 15L8 15L8 14.5L8 14L8.5 14L9 14L9 13.5L9 13L9.5 13Q10 13 12.5 10Q15 7 16 7L17 7L17.5 6L18 5L19 5L20 5L20 4.5L20 4L21 4L22 4L22 3.5L22 3L23.5 3L25 3L25 2.5L25 2L27 2L29 2L29 1.5ZM48 8.5L48 8L51 8L54 8L54 8.5L54 9L55 9.5L56 10L56 11L56 12L56.5 12L57 12L57 14L57 16L56.5 16L56 16L56 17L56 18L55.5 18L55 18L54.5 19Q54 20 52 20.5Q50 21 49.5 22Q49 23 46 24Q43 25 42.5 26Q42 27 40 27.5Q38 28 37.5 29Q37 30 34 31Q31 32 30.5 33L30 34L29 34L28 34L28 34.5L28 35L26 35.5L24 36L24 36.5L24 37L21 37L18 37L18 36.5L18 36L17 36L16 36L16 35L16 34L15.5 34L15 34L15 31L15 28L15.5 28L16 28L16.5 27L17 26L18 26L19 26L19.5 25Q20 24 23 23Q26 22 26.5 21Q27 20 30 19Q33 18 33.5 17Q34 16 36 15.5Q38 15 38.5 14Q39 13 42 12L45 11L45 10.5L45 10L46.5 9.5L48 9L48 8.5ZM41 30.5L41 30L43.5 30L46 30L46 30.5L46 31L47.5 31.5L49 32L49 33L49 34L49.5 34L50 34L50 36L50 38L49.5 38L49 38L49 39L49 40L47.5 40.5Q46 41 45.5 42Q45 43 43 43.5Q41 44 40.5 45Q40 46 37 47Q34 48 33.5 49L33 50L31.5 50L30 50L30 50.5L30 51L27.5 50.5L25 50L25 49.5L25 49L24 48.5L23 48L23 46.5L23 45L22.5 45L22 45L22 44.5L22 44L22.5 44L23 44L23 42.5L23 41L23.5 41L24 41L24.5 40L25 39L26 39L27 39L27.5 38Q28 37 31 36Q34 35 34.5 34Q35 33 38 32L41 31L41 30.5ZM32.5 53L33 52L36 52L39 52L39 52.5L39 53L40 53L41 53L41 54L41 55L41.5 55L42 55L42 58L42 61L41.5 61L41 61L40 62.5L39 64L36.5 64L34 64L34 63.5L34 63L32.5 62.5L31 62L31 61L31 60L30.5 60L30 60L30 58L30 56L30.5 56L31 56L31 55L31 54L31.5 54L32 54L32.5 53Z"/><path fill="rgb(85,85,85)" fill-rule="evenodd" d="M29 1.5L29 1L36 1L43 1L43 1.5L43 2L45 2L47 2L47 2.5L47 3L48.5 3L50 3L50 3.5L50 4L50.5 4L51 4L51 4.5L51 5L49 5L47 5L47 5.5L47 6L45 6.5L43 7L43 7.5L43 8L41.5 8.5L40 9L40 9.5L40 10L36 10L32 10L32 10.5L32 11L30 11L28 11L28 11.5L28 12L25.5 12.5Q23 13 22.5 14L22 15L21 15L20 15L20 15.5Q20 16 17.5 18Q15 20 15 21L15 22L14 22.5Q13 23 12.5 25.5L12 28L11.5 28L11 28L11 30L11 32L10.5 32L10 32L10 36L10 40L10.5 40L11 40L11 42L11 44L11.5 44L12 44L12.5 46.5Q13 49 14 49.5L15 50L15 51L15 52L15.5 52Q16 52 18 54.5Q20 57 21 57L22 57L22 57.5L22 58L23.5 58.5L25 59L25 59.5L25 60L26 60L27 60L27.5 61.5L28 63L28.5 63L29 63L30 64.5L31 66L32 66L33 66L33 66.5L33 67L36.5 67L40 67L40 66.5L40 66L41 66L42 66L42 65.5L42 65L43 64.5L44 64L44 63L44 62L44.5 62L45 62L45 61L45 60L47 59.5Q49 59 49.5 58L50 57L51 57L52 57L52 56.5Q52 56 54.5 54Q57 52 57 51L57 50L58 49.5Q59 49 59.5 46.5L60 44L60.5 44L61 44L61 42L61 40L61.5 40L62 40L62 36L62 32L61.5 32L61 32L61 30L61 28L60.5 28L60 28L59.5 25.5Q59 23 58 22.5L57 22L57.5 20.5Q58 19 59 18.5L60 18L60 14.5L60 11L60.5 11L61 11L61 11.5L61 12L63 13.5L65 15L65 16L65 17L66 17.5L67 18L67 19L67 20L67.5 20L68 20L68 21L68 22L68.5 22L69 22L69 23.5L69 25L69.5 25L70 25L70 27L70 29L70.5 29L71 29L71 36L71 43L70.5 43L70 43L69.5 46.5L69 50L68.5 50L68 50L67.5 52Q67 54 66 54.5L65 55L65 56L65 57L64.5 57L64 57L64 57.5L64 58L63.5 58L63 58L63 58.5L63 59L62.5 59Q62 59 59.5 62Q57 65 56 65L55 65L54.5 66L54 67L53 67L52 67L52 67.5L52 68L51 68L50 68L50 68.5L50 69L48.5 69L47 69L47 69.5L47 70L45 70L43 70L43 70.5L43 71L36 71L29 71L29 70.5L29 70L25.5 69.5L22 69L22 68.5L22 68L20 67.5Q18 67 17.5 66L17 65L16 65L15 65L15 64.5L15 64L14.5 64L14 64L14 63.5L14 63L13.5 63L13 63L13 62.5Q13 62 10 59.5Q7 57 7 56L7 55L6 54.5L5 54L5 53L5 52L4.5 52L4 52L4 51L4 50L3.5 50L3 50L3 48.5L3 47L2.5 47L2 47L2 45L2 43L1.5 43L1 43L1 36L1 29L1.5 29L2 29L2.5 25.5L3 22L3.5 22L4 22L4.5 20Q5 18 6 17.5L7 17L7 16L7 15L7.5 15L8 15L8 14.5L8 14L8.5 14L9 14L9 13.5L9 13L9.5 13Q10 13 12.5 10Q15 7 16 7L17 7L17.5 6L18 5L19 5L20 5L20 4.5L20 4L21 4L22 4L22 3.5L22 3L23.5 3L25 3L25 2.5L25 2L27 2L29 2L29 1.5ZM48 8.5L48 8L51 8L54 8L54 8.5L54 9L55 9.5L56 10L56 11L56 12L56.5 12L57 12L57 14L57 16L56.5 16L56 16L56 17L56 18L55.5 18L55 18L54.5 19Q54 20 52 20.5Q50 21 49.5 22Q49 23 46 24Q43 25 42.5 26Q42 27 39 28Q36 29 35.5 30Q35 31 33 31.5Q31 32 30.5 33L30 34L29 34L28 34L28 34.5L28 35L26 35.5L24 36L24 36.5L24 37L21 37L18 37L18 36.5L18 36L17 36L16 36L16 35L16 34L15.5 34L15 34L15 31L15 28L15.5 28L16 28L16.5 27L17 26L18 26L19 26L19.5 25Q20 24 23 23Q26 22 26.5 21Q27 20 30 19Q33 18 33.5 17Q34 16 36 15.5Q38 15 38.5 14Q39 13 42 12L45 11L45 10.5L45 10L46.5 9.5L48 9L48 8.5ZM41 30.5L41 30L43.5 30L46 30L46 30.5L46 31L47.5 31.5L49 32L49 33L49 34L49.5 34L50 34L50 36L50 38L49.5 38L49 38L49 39L49 40L47.5 40.5Q46 41 45.5 42Q45 43 42 44Q39 45 38.5 46L38 47L37 47L36 47L36 47.5L36 48L33 49L30 50L30 50.5L30 51L27.5 50.5L25 50L25 49.5L25 49L24 48.5L23 48L23 46.5L23 45L22.5 45L22 45L22 44.5L22 44L22.5 44L23 44L23 42.5L23 41L23.5 41L24 41L24.5 40L25 39L26 39L27 39L27.5 38Q28 37 31 36Q34 35 34.5 34Q35 33 38 32L41 31L41 30.5ZM32.5 53L33 52L36 52L39 52L39 52.5L39 53L40 53L41 53L41 54L41 55L41.5 55L42 55L42 58L42 61L41.5 61L41 61L40 62.5L39 64L36.5 64L34 64L34 63.5L34 63L32.5 62.5L31 62L31 61L31 60L30.5 60L30 60L30 58L30 56L30.5 56L31 56L31 55L31 54L31.5 54L32 54L32.5 53Z"/><path fill="rgb(102,102,102)" fill-rule="evenodd" d="M29 1.5L29 1L36 1L43 1L43 1.5L43 2L45 2L47 2L47 2.5L47 3L48.5 3L50 3L50 3.5L50 4L50.5 4L51 4L51 4.5L51 5L49 5L47 5L47 5.5L47 6L45 6.5L43 7L43 7.5L43 8L41.5 8.5L40 9L40 9.5L40 10L36 10L32 10L32 10.5L32 11L30 11L28 11L28 11.5L28 12L25.5 12.5Q23 13 22.5 14L22 15L21 15L20 15L20 15.5Q20 16 17.5 18Q15 20 15 21L15 22L14 22.5Q13 23 12.5 25.5L12 28L11.5 28L11 28L11 30L11 32L10.5 32L10 32L10 36L10 40L10.5 40L11 40L11 42L11 44L11.5 44L12 44L12.5 46.5Q13 49 14 49.5L15 50L15 51L15 52L15.5 52Q16 52 18 54.5Q20 57 21 57L22 57L22 57.5L22 58L23.5 58.5L25 59L25 59.5L25 60L26 60L27 60L27.5 61.5L28 63L28.5 63L29 63L30 64.5L31 66L32 66L33 66L33 66.5L33 67L36.5 67L40 67L40 66.5L40 66L41 66L42 66L42 65.5L42 65L43 64.5L44 64L44 63L44 62L44.5 62L45 62L45 61L45 60L47 59.5Q49 59 49.5 58L50 57L51 57L52 57L52 56.5Q52 56 54.5 54Q57 52 57 51L57 50L58 49.5Q59 49 59.5 46.5L60 44L60.5 44L61 44L61 42L61 40L61.5 40L62 40L62 36L62 32L61.5 32L61 32L61 30L61 28L60.5 28L60 28L59.5 25.5Q59 23 58 22.5L57 22L57.5 20.5Q58 19 59 18.5L60 18L60 14.5L60 11L60.5 11L61 11L61 11.5L61 12L63 13.5L65 15L65 16L65 17L66 17.5L67 18L67 19L67 20L67.5 20L68 20L68 21L68 22L68.5 22L69 22L69 23.5L69 25L69.5 25L70 25L70 27L70 29L70.5 29L71 29L71 36L71 43L70.5 43L70 43L69.5 46.5L69 50L68.5 50L68 50L67.5 52Q67 54 66 54.5L65 55L65 56L65 57L64.5 57L64 57L64 57.5L64 58L63.5 58L63 58L63 58.5L63 59L62.5 59Q62 59 59.5 62Q57 65 56 65L55 65L54.5 66L54 67L53 67L52 67L52 67.5L52 68L51 68L50 68L50 68.5L50 69L48.5 69L47 69L47 69.5L47 70L45 70L43 70L43 70.5L43 71L36 71L29 71L29 70.5L29 70L25.5 69.5L22 69L22 68.5L22 68L20 67.5Q18 67 17.5 66L17 65L16 65L15 65L15 64.5L15 64L14.5 64L14 64L14 63.5L14 63L13.5 63L13 63L13 62.5Q13 62 10 59.5Q7 57 7 56L7 55L6 54.5L5 54L5 53L5 52L4.5 52L4 52L4 51L4 50L3.5 50L3 50L3 48.5L3 47L2.5 47L2 47L2 45L2 43L1.5 43L1 43L1 36L1 29L1.5 29L2 29L2.5 25.5L3 22L3.5 22L4 22L4.5 20Q5 18 6 17.5L7 17L7 16L7 15L7.5 15L8 15L8 14.5L8 14L8.5 14L9 14L9 13.5L9 13L9.5 13Q10 13 12.5 10Q15 7 16 7L17 7L17.5 6L18 5L19 5L20 5L20 4.5L20 4L21 4L22 4L22 3.5L22 3L23.5 3L25 3L25 2.5L25 2L27 2L29 2L29 1.5ZM48 8.5L48 8L51 8L54 8L54 8.5L54 9L55 9.5L56 10L56 11L56 12L56.5 12L57 12L57 14L57 16L56.5 16L56 16L56 17L56 18L55.5 18L55 18L54.5 19Q54 20 52 20.5Q50 21 49.5 22Q49 23 46 24Q43 25 42.5 26Q42 27 39 28Q36 29 35.5 30Q35 31 32 32Q29 33 28.5 34L28 35L27 35L26 35L26 35.5L26 36L25 36L24 36L24 36.5L24 37L21 37L18 37L18 36.5L18 36L17 36L16 36L16 35L16 34L15.5 34L15 34L15 31L15 28L15.5 28L16 28L16.5 27L17 26L18 26L19 26L19.5 25Q20 24 23 23Q26 22 26.5 21Q27 20 30 19Q33 18 33.5 17Q34 16 36 15.5Q38 15 38.5 14Q39 13 42 12L45 11L45 10.5L45 10L46.5 9.5L48 9L48 8.5ZM41 30.5L41 30L43.5 30L46 30L46 30.5L46 31L47.5 31.5L49 32L49 33L49 34L49.5 34L50 34L49.5 36.5L49 39L48.5 39L48 39L47 40.5Q46 42 44 42.5Q42 43 41.5 44Q41 45 38 46L35 47L35 47.5L35 48L33.5 48.5L32 49L32 49.5L32 50L30.5 50L29 50L29 50.5L29 51L28.5 51L28 51L28 50.5L28 50L26.5 50L25 50L25 49.5L25 49L24 48.5L23 48L23 46.5L23 45L22.5 45L22 45L22 44.5L22 44L22.5 44L23 44L23 42.5L23 41L23.5 41L24 41L24.5 40Q25 39 28 38Q31 37 31.5 36Q32 35 34 34.5Q36 34 36.5 33Q37 32 39 31.5L41 31L41 30.5ZM32.5 53L33 52L36 52L39 52L39 52.5L39 53L40 53L41 53L41 54L41 55L41.5 55L42 55L42 58L42 61L41.5 61L41 61L40 62.5L39 64L36.5 64L34 64L34 63.5L34 63L32.5 62.5L31 62L31 61L31 60L30.5 60L30 60L30 58L30 56L30.5 56L31 56L31 55L31 54L31.5 54L32 54L32.5 53Z"/><path fill="rgb(119,119,119)" fill-rule="evenodd" d="M29 1.5L29 1L36 1L43 1L43 1.5L43 2L45 2L47 2L47 2.5L47 3L48.5 3L50 3L50 3.5L50 4L50.5 4L51 4L51 4.5L51 5L49 5L47 5L47 5.5L47 6L45 6.5L43 7L43 7.5L43 8L41.5 8.5L40 9L40 9.5L40 10L36 10L32 10L32 10.5L32 11L30 11L28 11L28 11.5L28 12L25.5 12.5Q23 13 22.5 14L22 15L21 15L20 15L20 15.5Q20 16 17.5 18Q15 20 15 21L15 22L14 22.5Q13 23 12.5 25.5L12 28L11.5 28L11 28L11 30L11 32L10.5 32L10 32L10 36L10 40L10.5 40L11 40L11 42L11 44L11.5 44L12 44L12.5 46.5Q13 49 14 49.5L15 50L15 51L15 52L15.5 52Q16 52 18 54.5Q20 57 21 57L22 57L22 57.5L22 58L23.5 58.5L25 59L25 59.5L25 60L26 60L27 60L27.5 61.5L28 63L28.5 63L29 63L30 64.5L31 66L32 66L33 66L33 66.5L33 67L36.5 67L40 67L40 66.5L40 66L41 66L42 66L42 65.5L42 65L43 64.5L44 64L44 63L44 62L44.5 62L45 62L45 61L45 60L47 59.5Q49 59 49.5 58L50 57L51 57L52 57L52 56.5Q52 56 54.5 54Q57 52 57 51L57 50L58 49.5Q59 49 59.5 46.5L60 44L60.5 44L61 44L61 42L61 40L61.5 40L62 40L62 36L62 32L61.5 32L61 32L61 30L61 28L60.5 28L60 28L59.5 25.5Q59 23 58 22.5L57 22L57.5 20.5Q58 19 59 18.5L60 18L60 14.5L60 11L60.5 11L61 11L61 11.5L61 12L63 13.5L65 15L65 16L65 17L66 17.5L67 18L67 19L67 20L67.5 20L68 20L68 21L68 22L68.5 22L69 22L69 23.5L69 25L69.5 25L70 25L70 27L70 29L70.5 29L71 29L71 36L71 43L70.5 43L70 43L69.5 46.5L69 50L68.5 50L68 50L67.5 52Q67 54 66 54.5L65 55L65 56L65 57L64.5 57L64 57L64 57.5L64 58L63.5 58L63 58L63 58.5L63 59L62.5 59Q62 59 59.5 62Q57 65 56 65L55 65L54.5 66L54 67L53 67L52 67L52 67.5L52 68L51 68L50 68L50 68.5L50 69L48.5 69L47 69L47 69.5L47 70L45 70L43 70L43 70.5L43 71L36 71L29 71L29 70.5L29 70L25.5 69.5L22 69L22 68.5L22 68L20 67.5Q18 67 17.5 66L17 65L16 65L15 65L15 64.5L15 64L14.5 64L14 64L14 63.5L14 63L13.5 63L13 63L13 62.5Q13 62 10 59.5Q7 57 7 56L7 55L6 54.5L5 54L5 53L5 52L4.5 52L4 52L4 51L4 50L3.5 50L3 50L3 48.5L3 47L2.5 47L2 47L2 45L2 43L1.5 43L1 43L1 36L1 29L1.5 29L2 29L2.5 25.5L3 22L3.5 22L4 22L4.5 20Q5 18 6 17.5L7 17L7 16L7 15L7.5 15L8 15L8 14.5L8 14L8.5 14L9 14L9 13.5L9 13L9.5 13Q10 13 12.5 10Q15 7 16 7L17 7L17.5 6L18 5L19 5L20 5L20 4.5L20 4L21 4L22 4L22 3.5L22 3L23.5 3L25 3L25 2.5L25 2L27 2L29 2L29 1.5ZM48 8.5L48 8L51 8L54 8L54 8.5L54 9L55 9.5L56 10L56 11L56 12L56.5 12L57 12L57 14L57 16L56.5 16L56 16L55.5 17.5L55 19L54 19L53 19L52.5 20Q52 21 49 22Q46 23 45.5 24Q45 25 43 25.5Q41 26 40.5 27Q40 28 37 29Q34 30 33.5 31Q33 32 30 33L27 34L27 34.5L27 35L25.5 35.5L24 36L24 36.5L24 37L21 37L18 37L18 36.5L18 36L16.5 35L15 34L15 31L15 28L15.5 28L16 28L16.5 27L17 26L18 26L19 26L19.5 25Q20 24 23 23Q26 22 26.5 21Q27 20 30 19Q33 18 33.5 17Q34 16 36 15.5Q38 15 38.5 14Q39 13 42 12L45 11L45 10.5L45 10L46.5 9.5L48 9L48 8.5ZM32.5 53L33 52L36 52L39 52L39 52.5L39 53L40 53L41 53L41 54L41 55L41.5 55L42 55L42 58L42 61L41.5 61L41 61L40 62.5L39 64L36.5 64L34 64L34 63.5L34 63L32.5 62.5L31 62L31 61L31 60L30.5 60L30 60L30 58L30 56L30.5 56L31 56L31 55L31 54L31.5 54L32 54L32.5 53Z"/><path fill="rgb(136,136,136)" fill-rule="evenodd" d="M29 1.5L29 1L36 1L43 1L43 1.5L43 2L45 2L47 2L47 2.5L47 3L48.5 3L50 3L50 3.5L50 4L50.5 4L51 4L51 4.5L51 5L49 5L47 5L47 5.5L47 6L45 6.5L43 7L43 7.5L43 8L41.5 8.5L40 9L40 9.5L40 10L36 10L32 10L32 10.5L32 11L30 11L28 11L28 11.5L28 12L25.5 12.5Q23 13 22.5 14L22 15L21 15L20 15L20 15.5Q20 16 17.5 18Q15 20 15 21L15 22L14 22.5Q13 23 12.5 25.5L12 28L11.5 28L11 28L11 30L11 32L10.5 32L10 32L10 36L10 40L10.5 40L11 40L11 42L11 44L11.5 44L12 44L12.5 46.5Q13 49 14 49.5L15 50L15 51L15 52L15.5 52Q16 52 18 54.5Q20 57 21 57L22 57L22 57.5L22 58L23.5 58.5L25 59L25 59.5L25 60L26 60L27 60L27.5 61.5L28 63L28.5 63L29 63L30 64.5L31 66L32 66L33 66L33 66.5L33 67L36.5 67L40 67L40 66.5L40 66L41 66L42 66L42 65.5L42 65L43 64.5L44 64L44 63L44 62L44.5 62L45 62L45 61L45 60L47 59.5Q49 59 49.5 58L50 57L51 57L52 57L52 56.5Q52 56 54.5 54Q57 52 57 51L57 50L58 49.5Q59 49 59.5 46.5L60 44L60.5 44L61 44L61 42L61 40L61.5 40L62 40L62 36L62 32L61.5 32L61 32L61 30L61 28L60.5 28L60 28L59.5 25.5Q59 23 58 22.5L57 22L57.5 20.5Q58 19 59 18.5L60 18L60 14.5L60 11L60.5 11L61 11L61 11.5L61 12L63 13.5L65 15L65 16L65 17L66 17.5L67 18L67 19L67 20L67.5 20L68 20L68 21L68 22L68.5 22L69 22L69 23.5L69 25L69.5 25L70 25L70 27L70 29L70.5 29L71 29L71 36L71 43L70.5 43L70 43L69.5 46.5L69 50L68.5 50L68 50L67.5 52Q67 54 66 54.5L65 55L65 56L65 57L64.5 57L64 57L64 57.5L64 58L63.5 58L63 58L63 58.5L63 59L62.5 59Q62 59 59.5 62Q57 65 56 65L55 65L54.5 66L54 67L53 67L52 67L52 67.5L52 68L51 68L50 68L50 68.5L50 69L48.5 69L47 69L47 69.5L47 70L45 70L43 70L43 70.5L43 71L36 71L29 71L29 70.5L29 70L25.5 69.5L22 69L22 68.5L22 68L20 67.5Q18 67 17.5 66L17 65L16 65L15 65L15 64.5L15 64L14.5 64L14 64L14 63.5L14 63L13.5 63L13 63L13 62.5Q13 62 10 59.5Q7 57 7 56L7 55L6 54.5L5 54L5 53L5 52L4.5 52L4 52L4 51L4 50L3.5 50L3 50L3 48.5L3 47L2.5 47L2 47L2 45L2 43L1.5 43L1 43L1 36L1 29L1.5 29L2 29L2.5 25.5L3 22L3.5 22L4 22L4.5 20Q5 18 6 17.5L7 17L7 16L7 15L7.5 15L8 15L8 14.5L8 14L8.5 14L9 14L9 13.5L9 13L9.5 13Q10 13 12.5 10Q15 7 16 7L17 7L17.5 6L18 5L19 5L20 5L20 4.5L20 4L21 4L22 4L22 3.5L22 3L23.5 3L25 3L25 2.5L25 2L27 2L29 2L29 1.5ZM32.5 53L33 52L36 52L39 52L39 52.5L39 53L40 53L41 53L41 54L41 55L41.5 55L42 55L42 58L42 61L41.5 61L41 61L40 62.5L39 64L36.5 64L34 64L34 63.5L34 63L32.5 62.5L31 62L31 61L31 60L30.5 60L30 60L30 58L30 56L30.5 56L31 56L31 55L31 54L31.5 54L32 54L32.5 53Z"/><path fill="rgb(153,153,153)" fill-rule="evenodd" d="M29 1.5L29 1L36 1L43 1L43 1.5L43 2L45 2L47 2L47 2.5L47 3L48.5 3L50 3L50 3.5L50 4L50.5 4L51 4L51 4.5L51 5L49 5L47 5L47 5.5L47 6L45 6.5L43 7L43 7.5L43 8L41.5 8.5L40 9L40 9.5L40 10L36 10L32 10L32 10.5L32 11L30 11L28 11L28 11.5L28 12L25.5 12.5Q23 13 22.5 14L22 15L21 15L20 15L20 15.5Q20 16 17.5 18Q15 20 15 21L15 22L14 22.5Q13 23 12.5 25.5L12 28L11.5 28L11 28L11 30L11 32L10.5 32L10 32L10 36L10 40L10.5 40L11 40L11 42L11 44L11.5 44L12 44L12.5 46.5Q13 49 14 49.5L15 50L15 51L15 52L15.5 52Q16 52 18 54.5Q20 57 21 57L22 57L22 57.5L22 58L23.5 58.5L25 59L25 59.5L25 60L26 60L27 60L27.5 61.5L28 63L28.5 63L29 63L30 64.5L31 66L32 66L33 66L33 66.5L33 67L36.5 67L40 67L40 66.5L40 66L41 66L42 66L42 65.5L42 65L43 64.5L44 64L44 63L44 62L44.5 62L45 62L45 61L45 60L47 59.5Q49 59 49.5 58L50 57L51 57L52 57L52 56.5Q52 56 54.5 54Q57 52 57 51L57 50L58 49.5Q59 49 59.5 46.5L60 44L60.5 44L61 44L61 42L61 40L61.5 40L62 40L62 36L62 32L61.5 32L61 32L61 30L61 28L60.5 28L60 28L59.5 25.5Q59 23 58 22.5L57 22L57.5 20.5Q58 19 59 18.5L60 18L60 14.5L60 11L60.5 11L61 11L61 11.5L61 12L63 13.5L65 15L65 16L65 17L66 17.5L67 18L67 19L67 20L67.5 20L68 20L68 21L68 22L68.5 22L69 22L69 23.5L69 25L69.5 25L70 25L70 27L70 29L70.5 29L71 29L71 36L71 43L70.5 43L70 43L69.5 46.5L69 50L68.5 50L68 50L67.5 52Q67 54 66 54.5L65 55L65 56L65 57L64.5 57L64 57L64 57.5L64 58L63.5 58L63 58L63 58.5L63 59L62.5 59Q62 59 59.5 62Q57 65 56 65L55 65L54.5 66L54 67L53 67L52 67L52 67.5L52 68L51 68L50 68L50 68.5L50 69L48.5 69L47 69L47 69.5L47 70L45 70L43 70L43 70.5L43 71L36 71L29 71L29 70.5L29 70L25.5 69.5L22 69L22 68.5L22 68L20 67.5Q18 67 17.5 66L17 65L16 65L15 65L15 64.5L15 64L14.5 64L14 64L14 63.5L14 63L13.5 63L13 63L13 62.5Q13 62 10 59.5Q7 57 7 56L7 55L6 54.5L5 54L5 53L5 52L4.5 52L4 52L4 51L4 50L3.5 50L3 50L3 48.5L3 47L2.5 47L2 47L2 45L2 43L1.5 43L1 43L1 36L1 29L1.5 29L2 29L2.5 25.5L3 22L3.5 22L4 22L4.5 20Q5 18 6 17.5L7 17L7 16L7 15L7.5 15L8 15L8 14.5L8 14L8.5 14L9 14L9 13.5L9 13L9.5 13Q10 13 12.5 10Q15 7 16 7L17 7L17.5 6L18 5L19 5L20 5L20 4.5L20 4L21 4L22 4L22 3.5L22 3L23.5 3L25 3L25 2.5L25 2L27 2L29 2L29 1.5ZM34 52.5L34 52L36.5 52L39 52L39 52.5L39 53L40 53L41 53L41 54L41 55L41.5 55L42 55L42 58L42 61L41.5 61L41 61L40.5 62L40 63L39 63L38 63L38 63.5L38 64L35.5 63.5L33 63L33 62.5L33 62L32 61.5L31 61L31 60L31 59L30.5 59L30 59L30.5 56.5L31 54L32.5 53.5L34 53L34 52.5Z"/><path fill="rgb(170,170,170)" fill-rule="evenodd" d="M29 1.5L29 1L36 1L43 1L43 1.5L43 2L45 2L47 2L47 2.5L47 3L48.5 3L50 3L50 3.5L50 4L50.5 4L51 4L51 4.5L51 5L49 5L47 5L47 5.5L47 6L45 6.5L43 7L43 7.5L43 8L41.5 8.5L40 9L40 9.5L40 10L36 10L32 10L32 10.5L32 11L30 11L28 11L28 11.5L28 12L25.5 12.5Q23 13 22.5 14L22 15L21 15L20 15L20 15.5Q20 16 17.5 18Q15 20 15 21L15 22L14 22.5Q13 23 12.5 25.5L12 28L11.5 28L11 28L11 30L11 32L10.5 32L10 32L10 36L10 40L10.5 40L11 40L11 42L11 44L11.5 44L12 44L12.5 46.5Q13 49 14 49.5L15 50L15 51L15 52L15.5 52Q16 52 18 54.5Q20 57 21 57L22 57L22 57.5L22 58L23.5 58.5L25 59L25 59.5L25 60L26 60L27 60L27.5 61.5L28 63L28.5 63L29 63L30 64.5L31 66L32 66L33 66L33 66.5L33 67L36.5 67L40 67L40 66.5L40 66L41 66L42 66L42 65.5L42 65L43 64.5L44 64L44 63L44 62L44.5 62L45 62L45 61L45 60L47 59.5Q49 59 49.5 58L50 57L51 57L52 57L52 56.5Q52 56 54.5 54Q57 52 57 51L57 50L58 49.5Q59 49 59.5 46.5L60 44L60.5 44L61 44L61 42L61 40L61.5 40L62 40L62 36L62 32L61.5 32L61 32L61 30L61 28L60.5 28L60 28L59.5 25.5Q59 23 58 22.5L57 22L57.5 20.5Q58 19 59 18.5L60 18L60 14.5L60 11L60.5 11L61 11L61 11.5L61 12L63 13.5L65 15L65 16L65 17L66 17.5L67 18L67 19L67 20L67.5 20L68 20L68 21L68 22L68.5 22L69 22L69 23.5L69 25L69.5 25L70 25L70 27L70 29L70.5 29L71 29L71 36L71 43L70.5 43L70 43L69.5 46.5L69 50L68.5 50L68 50L67.5 52Q67 54 66 54.5L65 55L65 56L65 57L64.5 57L64 57L64 57.5L64 58L63.5 58L63 58L63 58.5L63 59L62.5 59Q62 59 59.5 62Q57 65 56 65L55 65L54.5 66L54 67L53 67L52 67L52 67.5L52 68L51 68L50 68L50 68.5L50 69L48.5 69L47 69L47 69.5L47 70L45 70L43 70L43 70.5L43 71L36 71L29 71L29 70.5L29 70L25.5 69.5L22 69L22 68.5L22 68L20 67.5Q18 67 17.5 66L17 65L16 65L15 65L15 64.5L15 64L14.5 64L14 64L14 63.5L14 63L13.5 63L13 63L13 62.5Q13 62 10 59.5Q7 57 7 56L7 55L6 54.5L5 54L5 53L5 52L4.5 52L4 52L4 51L4 50L3.5 50L3 50L3 48.5L3 47L2.5 47L2 47L2 45L2 43L1.5 43L1 43L1 36L1 29L1.5 29L2 29L2.5 25.5L3 22L3.5 22L4 22L4.5 20Q5 18 6 17.5L7 17L7 16L7 15L7.5 15L8 15L8 14.5L8 14L8.5 14L9 14L9 13.5L9 13L9.5 13Q10 13 12.5 10Q15 7 16 7L17 7L17.5 6L18 5L19 5L20 5L20 4.5L20 4L21 4L22 4L22 3.5L22 3L23.5 3L25 3L25 2.5L25 2L27 2L29 2L29 1.5Z"/><path fill="rgb(187,187,187)" fill-rule="evenodd" d="M29 1.5L29 1L36 1L43 1L43 1.5L43 2L45 2L47 2L47 2.5L47 3L48.5 3L50 3L50 3.5L50 4L50.5 4L51 4L51 4.5L51 5L49 5L47 5L47 5.5L47 6L45 6.5L43 7L43 7.5L43 8L41.5 8.5L40 9L40 9.5L40 10L36 10L32 10L32 10.5L32 11L30 11L28 11L28 11.5L28 12L25.5 12.5Q23 13 22.5 14L22 15L21 15L20 15L20 15.5Q20 16 17.5 18Q15 20 15 21L15 22L14 22.5Q13 23 12.5 25.5L12 28L11.5 28L11 28L11 30L11 32L10.5 32L10 32L10 36L10 40L10.5 40L11 40L11 42L11 44L11.5 44L12 44L12.5 46.5Q13 49 14 49.5L15 50L15 51L15 52L15.5 52Q16 52 18 54.5Q20 57 21 57L22 57L22 57.5L22 58L23.5 58.5L25 59L25 59.5L25 60L26 60L27 60L27.5 61.5L28 63L28.5 63L29 63L30.5 65L32 67L36 67L40 67L40 66.5L40 66L41 66L42 66L42 65.5L42 65L43 64.5L44 64L44 63L44 62L44.5 62L45 62L45 61L45 60L47 59.5Q49 59 49.5 58L50 57L51 57L52 57L52 56.5Q52 56 54.5 54Q57 52 57 51L57 50L58 49.5Q59 49 59.5 46.5L60 44L60.5 44L61 44L61 42L61 40L61.5 40L62 40L62 36L62 32L61.5 32L61 32L60.5 28.5L60 25L59.5 25L59 25L59 24L59 23L58.5 23L58 23L58 21L58 19L59 18.5L60 18L60 14.5L60 11L60.5 11L61 11L61 11.5L61 12L63 13.5L65 15L65 16L65 17L66 17.5L67 18L67 19L67 20L67.5 20L68 20L68 21L68 22L68.5 22L69 22L69 23.5L69 25L69.5 25L70 25L70 27L70 29L70.5 29L71 29L71 36L71 43L70.5 43L70 43L69.5 46.5L69 50L68.5 50L68 50L67.5 52Q67 54 66 54.5L65 55L65 56L65 57L64.5 57L64 57L64 57.5L64 58L63.5 58L63 58L63 58.5L63 59L62.5 59Q62 59 59.5 62Q57 65 56 65L55 65L54.5 66L54 67L53 67L52 67L52 67.5L52 68L51 68L50 68L50 68.5L50 69L48.5 69L47 69L47 69.5L47 70L45 70L43 70L43 70.5L43 71L36 71L29 71L29 70.5L29 70L25.5 69.5L22 69L22 68.5L22 68L20 67.5Q18 67 17.5 66L17 65L16 65L15 65L15 64.5L15 64L14.5 64L14 64L14 63.5L14 63L13.5 63L13 63L13 62.5Q13 62 10 59.5Q7 57 7 56L7 55L6 54.5L5 54L5 53L5 52L4.5 52L4 52L4 51L4 50L3.5 50L3 50L3 48.5L3 47L2.5 47L2 47L2 45L2 43L1.5 43L1 43L1 36L1 29L1.5 29L2 29L2.5 25.5L3 22L3.5 22L4 22L4.5 20Q5 18 6 17.5L7 17L7 16L7 15L7.5 15L8 15L8 14.5L8 14L8.5 14L9 14L9 13.5L9 13L9.5 13Q10 13 12.5 10Q15 7 16 7L17 7L17.5 6L18 5L19 5L20 5L20 4.5L20 4L21 4L22 4L22 3.5L22 3L23.5 3L25 3L25 2.5L25 2L27 2L29 2L29 1.5Z"/><path fill="rgb(204,204,204)" fill-rule="evenodd" d="M60 15L60 11L60.5 11L61 11L61 11.5L61 12L63 13.5L65 15L65 16L65 17L66 17.5L67 18L67 19L67 20L67.5 20L68 20L68 21L68 22L68.5 22L69 22L69 23.5L69 25L69.5 25L70 25L70 27L70 29L70.5 29L71 29L71 36L71 43L70.5 43L70 43L69.5 46.5L69 50L68.5 50L68 50L67.5 52Q67 54 66 54.5L65 55L65 56L65 57L64.5 57L64 57L64 57.5L64 58L63.5 58L63 58L63 58.5L63 59L62.5 59Q62 59 59.5 62Q57 65 56 65L55 65L54.5 66L54 67L53 67L52 67L52 67.5L52 68L51 68L50 68L50 68.5L50 69L48.5 69L47 69L47 69.5L47 70L45 70L43 70L43 70.5L43 71L36 71L29 71L29 70.5L29 70L25.5 69.5L22 69L22 68.5L22 68L20 67.5Q18 67 17.5 66L17 65L16 65L15 65L15 64.5L15 64L14.5 64L14 64L14 63.5Q14 63 11 60.5Q8 58 8 57L8 56L8.5 56Q9 56 11.5 53Q14 50 14.5 50L15 50L15 51L15 52L15.5 52Q16 52 18 54.5Q20 57 21 57L22 57L22 57.5L22 58L23.5 58.5L25 59L25 59.5L25 60L26 60L27 60L27 60.5L27 61L27.5 61L28 61L28 62.5L28 64L28.5 64L29 64L29.5 65L30 66L31 66L32 66L32 66.5L32 67L33 67L34 67L34 67.5L34 68L37.5 67.5L41 67L41 66.5L41 66L43 64.5L45 63L45 62L45 61L45.5 61L46 61L46.5 60L47 59L48 59L49 59L49.5 58L50 57L51 57L52 57L52 56.5Q52 56 54.5 54Q57 52 57 51L57 50L57.5 50L58 50L58.5 48.5L59 47L59.5 47L60 47L60.5 43.5L61 40L61.5 40L62 40L62 36L62 32L61.5 32L61 32L60.5 28.5L60 25L59.5 25L59 25L59 24L59 23L58.5 23L58 23L58 21.5L58 20L59 19.5L60 19L60 15ZM13 49.5L13 49L13.5 49L14 49L14 49.5L14 50L13.5 50L13 50L13 49.5Z"/></svg>
