<svg xmlns="http://www.w3.org/2000/svg" viewBox="25.5938 74.2344 258.5625 186.8750"><title>EN</title><desc>Vector outlines from JetBrainsMono Nerd Font; GPL-3.0-only artwork.</desc><path fill="#fff" fill-rule="evenodd" d="M25.5938 261.1094L25.5938 74.2344L133.1250 74.2344L133.1250 95.2188L48.3906 95.2188L48.3906 153.0781L124.1563 153.0781L124.1563 173.5625L48.3906 173.5625L48.3906 240.1250L133.1250 240.1250L133.1250 261.1094L25.5938 261.1094M176.6406 261.1094L176.6406 74.2344L207.3594 74.2344L264.4375 234.2344C264.0938 229.9635 263.7083 224.7135 263.2813 218.4844C262.8542 212.2552 262.5130 205.6849 262.2578 198.7734C262.0026 191.8620 261.8750 185.3333 261.8750 179.1875L261.8750 74.2344L284.1563 74.2344L284.1563 261.1094L253.4375 261.1094L196.5938 101.1094C196.9375 105.2031 197.2813 110.3646 197.6250 116.5938C197.9688 122.8229 198.2682 129.3932 198.5234 136.3047C198.7786 143.2161 198.9063 149.8333 198.9063 156.1563L198.9063 261.1094L176.6406 261.1094"/></svg>
