<svg xmlns="http://www.w3.org/2000/svg" viewBox="0.0000 72.9531 224.0000 192.0000"><title>󰑓</title><desc>Vector outlines from JetBrainsMono Nerd Font; GPL-3.0-only artwork.</desc><path fill="#fff" fill-rule="evenodd" d="M0.0000 168.9531C0.0000 186.3594 4.2656 202.3594 12.7969 216.9531C21.3281 231.5469 32.9766 243.1953 47.7422 251.8984C62.5078 260.6016 78.5938 264.9531 96.0000 264.9531C108.6250 264.9531 120.8698 262.5208 132.7344 257.6563C144.5990 252.7917 155.0521 246.0938 164.0938 237.5625L147.9688 221.4375C141.3125 228.4271 133.5052 233.8438 124.5469 237.6875C115.5885 241.5313 106.0729 243.4531 96.0000 243.4531C79.9583 243.4531 65.6198 239.0990 52.9844 230.3906C41.3802 222.0260 32.7214 211.0182 27.0078 197.3672C21.2943 183.7161 19.6302 169.8906 22.0156 155.8906C24.7448 140.5365 31.7422 127.2266 43.0078 115.9609C54.2734 104.6953 67.5833 97.8698 82.9375 95.4844C96.9375 92.7552 110.7630 94.2474 124.4141 99.9609C138.0651 105.6745 148.9010 114.3333 156.9219 125.9375C165.9740 138.5729 170.5000 152.9115 170.5000 168.9531L138.5000 168.9531L180.9844 211.4531L182.0156 211.4531L224.0000 168.9531L192.0000 168.9531C192.0000 151.5469 187.6484 135.5469 178.9453 120.9531C170.2422 106.3594 158.5938 94.7109 144.0000 86.0078C129.4063 77.3047 113.4063 72.9531 96.0000 72.9531C78.5938 72.9531 62.5078 77.3047 47.7422 86.0078C32.9766 94.7109 21.3281 106.3594 12.7969 120.9531C4.2656 135.5469 0.0000 151.5469 0.0000 168.9531"/></svg>
