<svg xmlns="http://www.w3.org/2000/svg" viewBox="0 0 24 24"><path fill="#fff" fill-rule="evenodd" d="M22.0344 12.543L21.9764 12.428L21.912 12.3164L21.8412 12.2081L21.7641 12.1032L21.6809 12.0017L21.5917 11.9035L21.4966 11.8087L21.3957 11.7173L21.2892 11.6292L21.0596 11.4632L20.8091 11.3108L20.5385 11.1719L20.396 11.1077L20.0974 10.9895L19.7819 10.8851L19.4495 10.7944L19.1024 10.7177L18.7414 10.6549L18.3675 10.606L17.9809 10.5709L17.957 10.5621L17.9438 10.5482L17.9369 10.5303L17.9294 10.3613L17.9096 10.2082L17.8776 10.0631L17.8339 9.9263L17.7793 9.7982L17.7144 9.6793L17.6399 9.5697L17.5563 9.4701L17.4645 9.3806L17.3648 9.3018L17.2581 9.234L17.1448 9.1775L17.0256 9.1329L16.901 9.1004L16.7717 9.0807L16.6369 9.0739L2.8663 9.0739L2.7316 9.0806L2.6022 9.1004L2.4776 9.1328L2.3584 9.1774L2.2451 9.2339L2.1384 9.3017L2.0388 9.3804L1.9469 9.4698L1.8633 9.5695L1.7888 9.679L1.7239 9.7979L1.6693 9.926L1.6256 10.0628L1.5936 10.208L1.5739 10.3612L1.5671 10.5229L1.5671 16.5096L1.574 16.8149L1.5946 17.1157L1.6284 17.4123L1.6753 17.7042L1.735 17.9911L1.807 18.2726L1.8912 18.5482L1.9872 18.8178L2.0947 19.0807L2.2135 19.3368L2.3432 19.5855L2.4835 19.8265L2.6341 20.0595L2.7947 20.284L2.965 20.4997L3.1448 20.7062L3.3336 20.9031L3.5313 21.09L3.7375 21.2666L3.9518 21.4324L4.1741 21.5872L4.404 21.7305L4.6413 21.8619L4.8855 21.9811L5.1364 22.0877L5.3938 22.1813L5.6573 22.2615L5.9267 22.328L6.2016 22.3804L6.4818 22.4183L6.767 22.4414L7.0575 22.4491L12.7619 22.4461L12.9272 22.4371L13.2545 22.4017L13.5771 22.3437L13.8944 22.2639L14.2057 22.1633L14.3589 22.1054L14.66 21.9751L14.8077 21.9029L15.0971 21.7448L15.2386 21.6591L15.5149 21.4752L15.6494 21.3771L15.9107 21.1695L16.1619 20.9466L16.4016 20.7099L16.6294 20.4602L16.8445 20.1983L17.0562 19.9147L17.4 19.7644L17.7249 19.6143L18.0424 19.4577L18.3522 19.2947L18.6541 19.1256L18.9479 18.9507L19.2334 18.7701L19.5103 18.5841L19.7785 18.3928L20.0376 18.1966L20.2875 17.9956L20.5281 17.7901L20.7589 17.5802L20.9799 17.3663L21.1908 17.1485L21.3895 16.9291L21.5746 16.6523L21.7433 16.374L21.8941 16.0968L22.0268 15.8211L22.141 15.5474L22.2368 15.2761L22.3137 15.0076L22.3719 14.742L22.3937 14.6112L22.423 14.3518L22.4329 14.0968L22.4233 13.8466L22.394 13.6015L22.3447 13.362L22.2753 13.1283L22.233 13.0138L22.1326 12.7888L22.0857 12.6614ZM19.8869 16.2178L19.64 16.4809L19.3787 16.7337L19.102 16.9788L18.8142 17.2141L18.5099 17.4461L18.193 17.6733L17.8631 17.8981L17.8457 17.9055L17.8267 17.9058L17.809 17.899L17.7953 17.8859L17.7875 17.8686L17.7867 17.8497L17.8372 17.6766L17.8737 17.5113L17.8999 17.3457L17.9175 17.1796L17.9338 16.846L17.9361 12.0191L17.9429 11.9941L17.9674 11.9733L17.9866 11.9699L18.262 11.9768L18.5289 11.9972L18.7846 12.0305L19.0284 12.0759L19.26 12.133L19.479 12.201L19.6849 12.2793L19.8773 12.3672L20.0557 12.4642L20.2197 12.5697L20.3689 12.683L20.5058 12.8066L20.6237 12.9342L20.7251 13.0679L20.8096 13.207L20.9133 13.4305L20.9476 13.5224L20.9731 13.6084L20.9932 13.6983L21.0075 13.7917L21.0176 13.9725L21.007 14.1505L20.994 14.244L20.956 14.4224L20.9031 14.5984L20.8374 14.7712L20.7612 14.94L20.6768 15.104L20.5872 15.2609L20.4928 15.4132L20.3015 15.6946L20.1209 15.9406ZM16.5165 16.9833L16.4905 17.2167L16.4552 17.4415L16.4099 17.664L16.3547 17.8838L16.2915 18.0944L16.2188 18.3019L16.1366 18.5059L16.0477 18.7L15.9498 18.8902L15.8428 19.0761L15.7305 19.2516L15.6096 19.4222L15.48 19.5877L15.3465 19.7423L15.2048 19.8911L15.0567 20.0322L14.9024 20.1653L14.7401 20.2916L14.5762 20.4064L14.4049 20.5139L14.226 20.6135L14.0445 20.7026L13.8607 20.7812L13.6701 20.851L13.4727 20.9115L13.274 20.9609L13.0742 20.9993L12.8658 21.0277L12.6569 21.0447L12.4464 21.0504L7.0555 21.0504L6.8463 21.0447L6.6373 21.0277L6.4315 20.9997L6.229 20.9609L6.0303 20.9115L5.8354 20.8519L5.6447 20.7821L5.4561 20.7015L5.2746 20.6124L5.0981 20.5139L4.9267 20.4064L4.7608 20.2901L4.6025 20.1669L4.4463 20.0322L4.2982 19.8911L4.1565 19.7423L4.023 19.5877L3.8948 19.4241L3.7725 19.2516L3.6591 19.0742L3.5544 18.8922L3.4564 18.7021L3.3665 18.5059L3.2843 18.3019L3.2116 18.0944L3.1479 17.8817L3.0937 17.6661L3.0484 17.4437L3.0127 17.2167L2.9869 16.9854L2.9712 16.7502L2.9659 16.5112L2.9658 10.5219L2.9696 10.503L2.9905 10.4792L3.0151 10.4726L16.4881 10.4726L16.507 10.4764L16.5308 10.4973L16.5374 10.5219L16.5374 16.5101L16.5321 16.748ZM13.6833 6.3003L13.7912 6.4106L13.887 6.5229L13.9285 6.5832L13.9609 6.6442L13.9829 6.7075L13.9919 6.7853L13.983 6.8513L13.9616 6.9155L13.9321 6.9772L13.7425 7.2965L13.6872 7.4011L13.6745 7.4165L13.6196 7.4499L13.5798 7.4829L13.5462 7.5209L13.5185 7.5635L13.4968 7.6103L13.4812 7.6608L13.4717 7.7146L13.4685 7.7711L13.4717 7.8297L13.4814 7.8896L13.4977 7.9503L13.5206 8.011L13.55 8.0711L13.5862 8.1299L13.629 8.1868L13.6783 8.2409L13.7336 8.2899L13.7947 8.3323L13.861 8.3684L13.9318 8.3981L14.0063 8.4213L14.0834 8.4379L14.1624 8.4479L14.2424 8.4513L14.3223 8.4479L14.4014 8.4379L14.4786 8.4213L14.5531 8.3981L14.624 8.3684L14.6904 8.3323L14.7516 8.2898L14.8041 8.2435L15.1286 7.7449L15.2293 7.5777L15.3229 7.4108L15.4076 7.2445L15.4817 7.0786L15.542 6.9171L15.5606 6.7621L15.5641 6.6135L15.5535 6.4742L15.5305 6.3433L15.4964 6.22L15.4528 6.1034L15.4008 5.9928L15.3421 5.8876L15.2779 5.787L15.2099 5.6907L14.9274 5.3324L14.8082 5.1699L14.7018 5.1097L14.5899 5.0317L14.4851 4.9425L14.3907 4.8436L14.3141 4.7422L14.2775 4.6818L14.2268 4.5693L14.2079 4.5043L14.1979 4.4484L14.1745 4.2298L14.1707 4.0758L14.1825 3.9407L14.2079 3.8184L14.2454 3.7079L14.2931 3.608L14.3491 3.5173L14.4117 3.4344L14.5484 3.2865L14.8311 3.0095L14.8936 2.9368L14.9519 2.8573L15.0049 2.8008L15.0466 2.7467L15.0825 2.689L15.1123 2.6281L15.1358 2.5645L15.1529 2.4987L15.1632 2.4312L15.1668 2.3625L15.1632 2.2937L15.1529 2.2262L15.1358 2.1604L15.1123 2.0969L15.0825 2.036L15.0466 1.9782L15.0049 1.9242L14.9522 1.8681L14.8945 1.7915L14.833 1.7273L14.7668 1.6732L14.6967 1.6291L14.6234 1.5948L14.5479 1.5704L14.4708 1.5557L14.3929 1.5509L14.3149 1.5557L14.2378 1.5704L14.1622 1.5948L14.0889 1.6291L14.0187 1.6732L13.9524 1.7273L13.8908 1.7915L13.8282 1.8736L13.5929 2.1056L13.3477 2.3563L13.2275 2.4896L13.1113 2.6294L13.0015 2.7762L12.9001 2.9306L12.8093 3.0932L12.7309 3.2652L12.6974 3.3539L12.642 3.54L12.6208 3.637L12.5929 3.8395L12.5867 3.9452L12.591 4.166L12.6022 4.2813L12.6197 4.4001L12.6768 4.6847L12.7185 4.8347L12.7684 4.9758L12.8253 5.1085L12.8883 5.2337L12.9564 5.3519L13.0284 5.464L13.1033 5.5702L13.2584 5.7695L13.5568 6.1288ZM9.19 6.2979L9.3001 6.4106L9.396 6.5229L9.4375 6.5832L9.4699 6.6442L9.4919 6.7075L9.5009 6.7853L9.492 6.8513L9.4706 6.9155L9.441 6.9772L9.2515 7.2965L9.1962 7.4011L9.1835 7.4165L9.1286 7.4499L9.0888 7.4829L9.0551 7.5209L9.0275 7.5635L9.0058 7.6103L8.9901 7.6608L8.9807 7.7146L8.9775 7.7711L8.9807 7.8297L8.9904 7.8896L9.0067 7.9503L9.0295 8.011L9.059 8.0711L9.0952 8.1299L9.138 8.1868L9.1873 8.2409L9.2426 8.2899L9.3037 8.3323L9.37 8.3684L9.4408 8.3981L9.5152 8.4213L9.5924 8.4379L9.6714 8.4479L9.7514 8.4513L9.8313 8.4479L9.9103 8.4379L9.9876 8.4213L10.0621 8.3981L10.1329 8.3684L10.1994 8.3323L10.2605 8.2898L10.3131 8.2435L10.6375 7.7449L10.7383 7.5777L10.8319 7.4108L10.9166 7.2445L10.9906 7.0786L11.0511 6.9169L11.0714 6.7611L11.0792 6.6117L11.0751 6.4716L11.06 6.3402L11.0347 6.2167L11.0001 6.1002L10.957 5.9901L10.9061 5.8854L10.8483 5.7856L10.7843 5.6899L10.6411 5.5086L10.4822 5.3356L10.1817 5.0283L10.1035 4.9385L10.0307 4.844L9.9626 4.7393L9.9064 4.6279L9.8659 4.5041L9.8308 4.2266L9.8225 4.0828L9.8259 3.9492L9.8414 3.8231L9.8654 3.7181L9.8992 3.6179L9.9432 3.5223L9.9915 3.4389L10.0449 3.3616L10.1023 3.2885L10.3443 3.0114L10.4598 2.8579L10.5132 2.8008L10.5549 2.7467L10.5908 2.689L10.6206 2.6281L10.6441 2.5645L10.6612 2.4987L10.6716 2.4312L10.6751 2.3625L10.6716 2.2937L10.6612 2.2262L10.6441 2.1604L10.6206 2.0969L10.5908 2.036L10.5549 1.9782L10.5132 1.9242L10.4606 1.8681L10.4028 1.7915L10.3413 1.7273L10.2751 1.6732L10.205 1.6291L10.1318 1.5948L10.0562 1.5704L9.9791 1.5557L9.9012 1.5509L9.8233 1.5557L9.7461 1.5704L9.6705 1.5948L9.5972 1.6291L9.5271 1.6732L9.4607 1.7273L9.3991 1.7915L9.337 1.8731L9.1083 2.105L8.8811 2.3545L8.7722 2.4876L8.6688 2.6271L8.5725 2.7736L8.485 2.9277L8.408 3.0902L8.3431 3.2617L8.2917 3.4434L8.2719 3.5374L8.2446 3.7346L8.2375 3.8376L8.2378 4.0527L8.2456 4.165L8.2775 4.3997L8.3337 4.6856L8.3709 4.8365L8.4137 4.9783L8.4615 5.1116L8.5135 5.2371L8.5693 5.3556L8.6891 5.5739L8.8168 5.7729ZM4.8512 6.3003L4.9591 6.4106L5.055 6.5229L5.0965 6.5832L5.1288 6.6442L5.1509 6.7075L5.1598 6.7853L5.151 6.8513L5.1296 6.9155L5.1 6.9772L4.9104 7.2965L4.8552 7.4011L4.8424 7.4165L4.7875 7.4499L4.7478 7.4829L4.7141 7.5209L4.6864 7.5635L4.6648 7.6103L4.6491 7.6608L4.6396 7.7146L4.6364 7.7711L4.6397 7.8297L4.6494 7.8896L4.6656 7.9503L4.6885 8.011L4.718 8.0711L4.7541 8.1299L4.797 8.1868L4.8462 8.2409L4.9016 8.2899L4.9626 8.3323L5.029 8.3684L5.0998 8.3981L5.1742 8.4213L5.2514 8.4379L5.3304 8.4479L5.4103 8.4513L5.4903 8.4479L5.5693 8.4379L5.6465 8.4213L5.721 8.3981L5.7919 8.3684L5.8583 8.3323L5.9195 8.2898L5.972 8.2435L6.2965 7.7449L6.3973 7.5777L6.4909 7.4108L6.5755 7.2445L6.6496 7.0786L6.71 6.9169L6.7303 6.7611L6.7382 6.6117L6.7341 6.4716L6.719 6.3402L6.6937 6.2167L6.659 6.1002L6.6159 5.9901L6.5651 5.8854L6.5072 5.7856L6.4432 5.6899L6.3738 5.5977L6.3 5.5086L6.1412 5.3356L5.9789 5.1713L5.8731 5.1076L5.7753 5.0283L5.6892 4.9388L5.6129 4.8411L5.5444 4.7371L5.4816 4.6284L5.3623 4.3913L5.341 4.256L5.3324 4.126L5.3371 3.999L5.3527 3.8901L5.3799 3.7829L5.4173 3.6822L5.4638 3.5871L5.5205 3.494L5.5819 3.4089L5.6498 3.3265L5.7976 3.1693L6.1245 2.8518L6.1729 2.8008L6.2146 2.7467L6.2504 2.689L6.2802 2.6281L6.3037 2.5645L6.3208 2.4987L6.3312 2.4312L6.3347 2.3625L6.3312 2.2937L6.3208 2.2262L6.3037 2.1604L6.2802 2.0969L6.2504 2.036L6.2146 1.9782L6.1729 1.9242L6.1202 1.8681L6.0625 1.7915L6.0009 1.7273L5.9347 1.6732L5.8646 1.6291L5.7914 1.5948L5.7158 1.5704L5.6387 1.5557L5.5608 1.5509L5.4829 1.5557L5.4057 1.5704L5.3301 1.5948L5.2569 1.6291L5.1867 1.6732L5.1204 1.7273L5.0587 1.7915L4.9966 1.8731L4.6522 2.2273L4.4269 2.4881L4.32 2.6278L4.2189 2.7747L4.1251 2.9292L4.04 3.0921L3.9651 3.2642L3.9019 3.4459L3.8518 3.6382L3.8163 3.8423L3.7969 4.0574L3.7937 4.1699L3.8014 4.4049L3.8125 4.5258L3.8448 4.6847L3.8865 4.8347L3.9363 4.9758L3.9933 5.1085L4.0563 5.2337L4.1243 5.3519L4.1964 5.464L4.2712 5.5702L4.4264 5.7695L4.7248 6.1288Z"/></svg>
